<svg xmlns="http://www.w3.org/2000/svg" xlink="http://www.w3.org/1999/xlink" width="0" height="0" style="display:none;"><symbol viewBox="0 0 24 24" id="car-fill"><path fill="none" d="M0 0h24v24H0z"/><path d="M19 20H5v1a1 1 0 0 1-1 1H3a1 1 0 0 1-1-1v-9l2.513-6.702A2 2 0 0 1 6.386 4h11.228a2 2 0 0 1 1.873 1.298L22 12v9a1 1 0 0 1-1 1h-1a1 1 0 0 1-1-1v-1zM4.136 12h15.728l-2.25-6H6.386l-2.25 6zM6.5 17a1.5 1.5 0 1 0 0-3 1.5 1.5 0 0 0 0 3zm11 0a1.5 1.5 0 1 0 0-3 1.5 1.5 0 0 0 0 3z"/></symbol><symbol viewBox="0 0 24 24" id="arrow-up-line"><path fill="none" d="M0 0h24v24H0z"/><path d="M13 7.828V20h-2V7.828l-5.364 5.364-1.414-1.414L12 4l7.778 7.778-1.414 1.414L13 7.828z"/></symbol><symbol viewBox="0 0 24 24" id="arrow-right-line"><path fill="none" d="M0 0h24v24H0z"/><path d="M16.172 11l-5.364-5.364 1.414-1.414L20 12l-7.778 7.778-1.414-1.414L16.172 13H4v-2z"/></symbol><symbol viewBox="0 0 24 24" id="arrow-down-line"><path fill="none" d="M0 0h24v24H0z"/><path d="M13 16.172l5.364-5.364 1.414 1.414L12 20l-7.778-7.778 1.414-1.414L11 16.172V4h2v12.172z"/></symbol><symbol viewBox="0 0 24 24" id="arrow-left-line"><path fill="none" d="M0 0h24v24H0z"/><path d="M7.828 11H20v2H7.828l5.364 5.364-1.414 1.414L4 12l7.778-7.778 1.414 1.414z"/></symbol><symbol viewBox="0 0 24 24" id="arrow-left-right-line"><path fill="none" d="M0 0h24v24H0z"/><path d="M16.05 12.05L21 17l-4.95 4.95-1.414-1.414 2.536-2.537L4 18v-2h13.172l-2.536-2.536 1.414-1.414zm-8.1-10l1.414 1.414L6.828 6 20 6v2H6.828l2.536 2.536L7.95 11.95 3 7l4.95-4.95z"/></symbol><symbol viewBox="0 0 24 24" id="arrow-up-down-line"><path fill="none" d="M0 0h24v24H0z"/><path d="M11.95 7.95l-1.414 1.414L8 6.828 8 20H6V6.828L3.465 9.364 2.05 7.95 7 3l4.95 4.95zm10 8.1L17 21l-4.95-4.95 1.414-1.414 2.537 2.536L16 4h2v13.172l2.536-2.536 1.414 1.414z"/></symbol><symbol viewBox="0 0 24 24" id="arrow-left-circle-line"><path fill="none" d="M0 0h24v24H0z"/><path d="M12 2c5.52 0 10 4.48 10 10s-4.48 10-10 10S2 17.52 2 12 6.48 2 12 2zm0 18c4.42 0 8-3.58 8-8s-3.58-8-8-8-8 3.58-8 8 3.58 8 8 8zm0-9h4v2h-4v3l-4-4 4-4v3z"/></symbol><symbol viewBox="0 0 24 24" id="arrow-right-circle-line"><path fill="none" d="M0 0h24v24H0z"/><path d="M12 11V8l4 4-4 4v-3H8v-2h4zm0-9c5.52 0 10 4.48 10 10s-4.48 10-10 10S2 17.52 2 12 6.48 2 12 2zm0 18c4.42 0 8-3.58 8-8s-3.58-8-8-8-8 3.58-8 8 3.58 8 8 8z"/></symbol></svg>